<?xml version="1.0" encoding="utf-8"?>
<!-- Generator: Adobe Illustrator 26.2.1, SVG Export Plug-In . SVG Version: 6.00 Build 0)  -->
<svg version="1.1" id="svg" xmlns="http://www.w3.org/2000/svg" xmlns:xlink="http://www.w3.org/1999/xlink" x="0px" y="0px"
	 viewBox="0 0 400 400" style="enable-background:new 0 0 400 400;" xml:space="preserve">
<style type="text/css">
	.st0{fill-rule:evenodd;clip-rule:evenodd;fill:#FFFFFF;}
</style>
<g id="svgg">
	<path id="path0" class="st0" d="M164.2,166.5c-2.4,0.9-3.4,2.3-3.4,4.8c0,2.7,0.9,3.5,5.5,4.7c3.5,0.9,4.4,1.5,3.9,2.7
		c-0.8,1.9-4.7,1.9-6.7-0.1l-0.7-0.6l-1.4,1l-1.4,1l1.2,1.1c4.4,4,12.4,2,12.5-3.1c0-3-1.2-4-6.1-5.2c-3.7-0.9-4.5-2.1-2.2-3.3
		c1.4-0.7,4.3,0,5,1.2c0.3,0.5,1,0.3,2.2-0.7l0.9-0.8l-0.8-0.8C170.9,166.4,166.8,165.5,164.2,166.5 M253.4,166.9
		c-5.9,3-5.4,13.6,0.8,15.6c2,0.7,4.9,0.4,6.5-0.6c1.2-0.8,3.1-3.1,2.9-3.7c-0.1-0.4-3-1.3-3.1-0.9c-1.2,3.6-6.4,3.1-7.5-0.8
		c-1.5-5.5,4.3-10.5,6.8-5.8c0.3,0.5,0.5,0.9,0.6,0.9c1.1,0,2.9-1,2.8-1.4C262.3,166.7,257.3,165,253.4,166.9 M290,166.6
		c-5.3,1.9-4.3,7.9,1.4,9.2c4.2,0.9,5.1,1.4,4.7,2.8c-0.5,1.9-5.2,1.9-6.9-0.1l-0.5-0.6l-1.3,0.9c-1.5,1-1.6,1.2-0.6,2.1
		c3.8,3.5,11.2,2.6,12.6-1.5c1.1-3.4-0.7-5.4-5.9-6.6c-2.9-0.7-3.5-1-3.5-1.9c0-1.8,3.6-2.3,5.6-0.7c1.3,1.1,1.3,1.1,2.5,0
		C300.9,167.8,294.2,165,290,166.6 M59.5,167.9v1.5h2.4h2.4v6.7v6.7h1.6h1.6V176v-6.7h2.4h2.4v-1.5v-1.5h-6.4h-6.4V167.9
		 M77.9,174.5v8.1h1.6h1.6v-3.5v-3.5h3.5H88v3.5v3.5h1.6h1.6v-8.1v-8.1h-1.6H88v3.2v3.2h-3.5h-3.5v-3.2v-3.2h-1.6h-1.6V174.5
		 M98.4,174.5v8.1h5.6h5.6v-1.5v-1.5h-4h-4v-2v-2h3.6h3.6v-1.5v-1.5h-3.6h-3.6v-1.7v-1.7h3.7h3.7v-1.5v-1.5h-5.3h-5.3V174.5
		 M125.3,174.5v8.2h1.6h1.6v-3.4V176l0.9,0.1c0.8,0.1,1,0.3,2.6,3.3l1.8,3.2l1.9,0.1c2.3,0.1,2.3,0.4-0.1-3.6c-2-3.3-2.1-3.8-1-3.8
		c1.2,0,2.7-3,2.3-4.8c-0.5-2.9-2.2-3.8-7.6-4l-3.9-0.1V174.5 M143.7,174.5v8.1h5.6h5.6v-1.5v-1.5h-4h-4v-2v-2h3.6h3.6v-1.5v-1.5
		h-3.6h-3.6v-1.7v-1.7h3.7h3.7v-1.5v-1.5h-5.3h-5.3V174.5 M180,174.5v8.1h1.6h1.6v-8.1v-8.1h-1.6H180V174.5 M190.4,174.5v8.2
		l4.1-0.1c7.1-0.2,10.2-2.4,10.5-7.4c0.4-5.9-2.7-8.5-10.5-8.7l-4.1-0.1V174.5 M211.2,174.5v8.1h5.6h5.6v-1.5v-1.5h-4h-4v-2v-2h3.6
		h3.6v-1.5v-1.5H218h-3.6v-1.7v-1.7h3.7h3.7v-1.5v-1.5h-5.3h-5.3V174.5 M228.8,174.5v8.1h1.6h1.6l0.1-5.5l0.1-5.5l3.4,5.5l3.4,5.5h2
		h2v-8.1v-8.1h-1.6h-1.6l-0.1,5.4l-0.1,5.4l-3.4-5.4l-3.4-5.4h-2h-2V174.5 M269.6,174.5v8.1h5.6h5.6v-1.5v-1.5h-4h-4v-2v-2h3.6h3.6
		v-1.5v-1.5h-3.6h-3.6v-1.7v-1.7h3.9h3.9v-1.5v-1.5h-5.5h-5.5V174.5 M320,167c-0.1,0.3-1.6,3.9-3.3,7.9c-3.7,8.6-3.5,7.8-1.3,7.7
		l1.8-0.1l0.7-1.8l0.7-1.8h3.2h3.2l0.7,1.8l0.7,1.8l1.9,0.1c1.8,0.1,1.9,0,1.7-0.4c-0.1-0.3-1.6-3.9-3.4-8.1l-3.2-7.6l-1.5,0
		C320.4,166.4,320.2,166.5,320,167 M332.3,167.9v1.5h2.5h2.5v6.7v6.7h1.6h1.6V176v-6.7h2.4h2.4v-1.5v-1.5h-6.5h-6.5V167.9
		 M132.7,169.6c2.4,1.1,0.8,3.4-2.4,3.4h-1.7v-1.9v-1.9h1.7C131.2,169.3,132.3,169.5,132.7,169.6 M199,170.1
		c2.1,0.9,3.1,3.5,2.4,6.1c-0.7,2.3-2.9,3.6-6.4,3.6h-1.3v-5.2v-5.2l2.1,0.1C196.9,169.5,198.2,169.7,199,170.1 M323.7,176.1
		c0,0.1-0.9,0.2-2,0.2s-2-0.1-2-0.2c0-0.1,0.4-1.4,1-2.8l1-2.6l1,2.6C323.3,174.7,323.7,176,323.7,176.1 M189.5,213.6
		c-4.5,2-4.6,2.1-2.2,3.3l1.7,0.9l-0.1,5.6l-0.1,5.6l-3.2,0.1c-3.9,0.1-6.5,0.9-9.3,2.8c-9,6-6.3,20.5,3.9,21.3
		c1.7,0.1,3.3-0.5,7.3-2.8l1.4-0.8v2.3c0,2.7-0.3,2.6,4.6,1c3.7-1.2,3.7-1.2,3.7-2c0-0.8,0-0.8-1.5-0.8c-2.6,0-2.3,2-2.2-19.5
		c0.1-10.4,0.1-18.9,0-18.9C193.5,211.8,191.7,212.6,189.5,213.6 M204.5,213.6c-4.5,2-4.5,2-2.2,3.2l1.8,0.9l-0.2,16.3
		c-0.2,17-0.2,16.8-1.5,17.1c-0.4,0.1-1.1,0.2-1.6,0.3c-0.7,0.1-0.8,0.3-0.8,0.9v0.8h6.3h6.3v-0.8c0-0.9-0.4-1.1-1.9-1.1
		c-2.3,0-2.4-0.8-2.3-10.5l0.1-6.6l1.9-1c3.6-1.8,6.7-1.1,8.2,1.8c0.6,1.3,0.6,1.5,0.6,7.6c0,8.5,0,8.5-2.9,8.9
		c-1.1,0.2-1.2,0.2-1.2,1v0.8h6.4h6.4v-0.8c0-0.8-0.6-1.1-2.2-1.1c-1.6,0-1.6-0.1-1.6-8.3c0-8.4-0.1-9.1-1.9-11.5
		c-2.6-3.5-7.1-3.8-11.4-0.7l-2,1.4l-0.1-10.2l-0.1-10.2L204.5,213.6 M107.3,216.9c-4.9,1.5-7.7,5.2-7.7,9.9c0,4.6,2,7,8.7,10.4
		c7.9,4,9.9,8.2,6.1,12.5c-4.3,4.9-10.4,2.4-13.6-5.5c-0.4-0.9-0.5-0.9-1.3-0.8l-0.9,0.1l0.2,1.9c0.3,3,1,7.2,1.2,7.5
		c0.9,1.1,10.5,1.3,13.3,0.4c5.1-1.7,7.9-5.2,7.9-9.9c0-4.8-1.8-7.2-8-10.5c-8.1-4.3-9.4-5.7-9.1-8.9c0.6-5.7,7.8-7.3,11.7-2.7
		c0.5,0.6,1.4,2,2,3.2c1.1,2.1,1.7,2.5,2.6,1.7c0.1-0.1-0.7-7.7-0.9-8.4c-0.1-0.4-0.3-0.4-1-0.3c-0.5,0.1-1.9-0.1-3.3-0.4
		C112.5,216.5,109,216.4,107.3,216.9 M129.7,218.5c-2.2,1-2.3,4.1-0.2,5.2c2.4,1.2,5.1-1.2,4.1-3.7
		C133,218.5,131.2,217.9,129.7,218.5 M144.9,229c-4.9,1.8-5,2-2.2,3.3l1.9,0.8v7.9c0,9.9,0,9.8-3,10.3c-0.9,0.1-1,0.2-1,1v0.8h6.5
		h6.5v-0.8c0-0.6-0.1-0.8-0.6-0.9c-3.9-0.7-3.7-0.2-3.7-9.5l0-7.6l0.6-0.5c3.6-3,8.8-2.2,10.1,1.4c0.5,1.4,0.6,5.5,0.3,10.4
		c-0.3,5.1-0.4,5.2-2.9,5.7c-1.6,0.3-1.7,0.3-1.7,1.1v0.8h6.5h6.5v-0.8c0-0.8-0.3-1-2.1-1.1c-1.9-0.2-2-0.7-1.7-7.5
		c0.5-9.4-0.3-12.2-4-14.6c-2.7-1.7-5.7-1.1-9.7,1.9c-2.1,1.6-2,1.7-2-1.1c0-1.3-0.1-2.4-0.2-2.4C149,227.5,147.1,228.2,144.9,229
		 M282.6,229c-4.7,1.8-4.9,2-2,3.3l1.9,0.8l-0.1,8.4l-0.1,8.4l-0.7,0.6c-0.4,0.4-1.2,0.7-2.1,0.8c-1.3,0.2-1.4,0.2-1.4,1v0.8h6.5
		h6.5v-0.8c0-0.7-0.1-0.8-0.7-0.9c-3.4-0.7-3.3-0.3-3.4-9.5c-0.1-8.4-0.2-7.9,2.6-9.1c3.7-1.6,7.3-0.4,8.2,2.8
		c0.6,2.3,0.5,12.9-0.1,14.5c-0.3,0.7-1.3,1.2-3,1.4c-1.3,0.2-1.4,0.2-1.4,1v0.8h6.7h6.7v-0.8c0-0.8-0.5-1.1-2-1.1
		c-1.9,0-1.9,0.2-1.9-8.8c0-9.5-0.1-9.8-2.8-12.3c-3.1-2.9-6.1-2.6-10.7,0.9c-1,0.8-1.9,1.4-1.9,1.4c-0.1,0-0.1-1.1-0.1-2.4
		C287.2,227,287.7,227.1,282.6,229 M263.3,228.5c-1,0.4-2.8,1.1-3.9,1.5c-2.7,1-2.7,1.4-0.2,2.6l1.9,0.9l-0.1,8.2l-0.1,8.2l-0.7,0.6
		c-0.4,0.4-1.3,0.7-2.1,0.8c-1.3,0.2-1.4,0.2-1.4,1v0.8h7.1h7.1v-0.8c0-0.7-0.1-0.8-0.9-0.9c-0.5-0.1-1.3-0.2-1.9-0.3
		c-0.5-0.1-1.3-0.4-1.7-0.8l-0.7-0.6l-0.1-6.5c-0.1-7.3,0.1-8.2,1.7-9.5c1.4-1.1,2.4-1.1,4.6,0c2.3,1.1,2.1,1.2,3.4-1.6l0.8-1.6
		l-1-0.9c-2.5-2.2-4.4-1.9-7.4,1.3l-2.1,2.1v-2.7c0-1.5-0.1-2.7-0.2-2.7C265.3,227.8,264.4,228.1,263.3,228.5 M129.1,229.6
		c-4.7,1.8-4.8,2.1-2.2,3.3l1.8,0.9l0.1,7.4c0.1,9.4-0.1,10-2.6,10c-1.2,0-1.6,0.3-1.6,1v0.7l6.7,0l6.7,0v-0.7c0-0.6-0.1-0.7-1-0.9
		c-3.7-0.6-3.4,0.5-3.5-12.4c0-6-0.2-10.9-0.3-10.9S131.2,228.7,129.1,229.6 M238.8,229.2c-9.4,3-12.5,13.7-5.9,20.6
		c9.8,10.3,27.1-1.8,20.7-14.4C251.1,230.6,243.8,227.6,238.8,229.2 M243.6,230.8c8.5,2.5,7.4,21-1.2,21c-9.2,0-10.5-19-1.5-21.2
		C242.1,230.4,242.2,230.4,243.6,230.8 M185.5,231.6c0.7,0.3,1.8,1.1,2.5,1.6l1.1,1L189,241l-0.1,6.8l-1.6,0.8
		c-3.4,1.7-6.8,1.1-9.2-1.6C172.2,240.3,178,228,185.5,231.6 M213.7,272.4c-4.3,1.9-4.3,2-2.1,3.2l1.6,0.9l0.1,9.6
		c0.2,22.1-0.1,24.1-2.8,24.1c-1.1,0-1.2,0-1.2,0.8v0.8h6.1h6.1v-0.8c0-0.8-0.1-0.8-1-0.8c-2.7,0-3-0.8-2.9-6.5l0.1-3.9l1.3,1.1
		c1.4,1.2,6.6,6.8,7.3,7.9c0.6,0.9,0,1.4-1.6,1.4c-1,0-1,0.1-1,0.8v0.8h6.1h6.1v-0.8c0-0.7-0.1-0.8-0.7-0.8
		c-1.3,0-5.8-4.2-12.2-11.4l-1-1.1l3.6-3c4.2-3.5,5.6-4.4,7.7-4.8c1.4-0.3,1.5-0.4,1.5-1.1V288h-5.7h-5.7v0.8c0,0.5,0.1,0.8,0.3,0.8
		c2.1,0,2.9,1,1.9,2.4c-1.5,2-7.2,7-7.9,7c-0.2,0,0-15.6,0.3-23.9c0.1-3.5,0.1-4.3-0.2-4.3C217.6,270.7,215.8,271.4,213.7,272.4
		 M385.3,272.4c-4.2,1.9-4.4,2.1-2.1,3.2l1.6,0.8l0,15.4c0,19,0.1,18.4-3.3,18.4c-0.9,0-1,0.1-1,0.8v0.8h6.8h6.8v-0.8
		c0-0.8-0.1-0.8-1.1-0.8c-4-0.1-3.7,1.3-3.5-20.7c0.1-15.5,0.1-18.7-0.2-18.7C389.1,270.7,387.3,271.5,385.3,272.4 M10.4,277.1
		c0.1,0.9,0.1,0.9,1.9,1c3.7,0.3,3.6-0.2,3.5,16.2c-0.1,15.8,0.1,15.1-3.4,15.4l-1.7,0.2v0.9v0.9h7.9h7.9v-0.9
		c0-0.8-0.1-0.9-0.7-0.9c-1.4,0-3.1-0.6-3.7-1.4l-0.7-0.8v-6.2v-6.2h1c1,0,1.2,0.1,7.1,6.5c6.9,7.5,7.2,8.1,3.8,8.1
		c-1.2,0-1.2,0-1.2,0.9v0.9h7.5h7.5v-0.9c0-0.8-0.1-0.9-1-1.1c-1.8-0.3-2.6-1-14.9-14.2l-3.3-3.5l2.4-2.7
		c7.2-8.1,10.2-10.8,12.4-11.1c2.4-0.3,2.5-0.3,2.5-1.2v-0.8H38h-7.1l0.1,0.9c0.1,0.8,0.1,0.9,1.5,1c3.7,0.4,3.1,1.9-3.8,9.6
		c-3.7,4.1-5.1,5.3-6.4,5.5l-1,0.2l0-6.4c0-8.7,0-8.7,3.6-9.1c1.7-0.2,1.7-0.2,1.7-0.9v-0.8h-8.2h-8.2L10.4,277.1 M268,277
		c0,0.9,0.4,1.1,1.9,1.1c3.5,0,3.4-0.2,3.4,15.1c0,16.4,0,16.1-3.8,16.5c-1.5,0.2-1.5,0.2-1.5,1v0.9h8.4h8.4v-0.9v-0.9l-1.9-0.1
		c-3.8-0.3-4-0.8-4-9.1v-6.3h9.9h9.9l-0.1,6.6c-0.1,8.3-0.3,8.8-4.6,8.8l-1.5,0v0.9v0.9h8.5h8.5v-0.9v-0.9l-1.3,0
		c-4.3,0-4.1,0.8-4-16.1c0.1-16.5-0.2-15.4,3.7-15.8c1.5-0.2,1.5-0.2,1.5-1v-0.8h-8.3h-8.3v0.8c0,0.9,0.5,1.1,2.2,1.1
		c3.1,0,3.4,0.7,3.4,8.2v5.7h-9.9h-9.9l0.2-6c0.2-7.2,0.5-7.8,3.4-7.8c1.6,0,2.1-0.3,2.1-1.1v-0.8h-8.3H268V277 M148.1,278
		c-1.9,1.9-0.7,4.7,2.1,4.7c1.8,0,2.8-1,2.8-2.8C153.1,277.2,150.1,276,148.1,278 M243.2,277.5c-0.9,0.5-1.4,1.7-1.2,3
		c0.4,2.5,4.2,3.1,5.4,0.9C248.7,278.6,245.9,276,243.2,277.5 M343.8,286.7c-4.5,3.9-4.7,4.3-2.2,4.3h1.6l-0.2,8.3
		c-0.2,9.5-0.1,10.4,1.7,11.9c2.3,2,6.9,1.6,10.3-0.9c2-1.5,1.7-3.1-0.3-1.8c-1.4,1-3.8,1.1-5,0.4c-1.6-1-1.7-1.5-1.7-10.1v-7.7h3.7
		h3.7l0.5-1.1c0.3-0.6,0.5-1.3,0.6-1.5c0.1-0.3-0.8-0.3-4.2-0.3H348l-0.1-2.4l-0.1-2.4L343.8,286.7 M75.7,287.7
		c-3.4,1.3-4.1,1.6-4.2,2.1c0,0.3,0.1,0.6,0.2,0.6c0.2,0,1,0.3,1.9,0.7l1.6,0.7v8.5c0,9.9,0.1,9.5-2.5,9.8c-1.5,0.2-1.5,0.2-1.5,0.9
		v0.8h6.5h6.5v-0.8c0-0.7-0.1-0.8-0.9-0.8c-3.2,0-3.3-0.5-3.3-9.8l0.1-7.6l1.7-0.9c3.8-2.1,8.1-1,8.9,2.2c0.3,1.2,0.3,12.5,0.1,14
		c-0.2,1.3-0.9,1.7-2.7,2c-1.3,0.2-1.4,0.2-1.4,0.9v0.8h6.4h6.4V311c0-0.7-0.1-0.8-1.4-0.9c-0.9-0.1-1.6-0.4-2-0.8l-0.6-0.6v-7.9
		v-7.9l1.9-1c2.4-1.2,4.3-1.3,6.1-0.4c2.5,1.3,3.1,3.5,2.8,10.9c-0.3,6.9-0.4,7.3-3.3,7.6c-1.3,0.2-1.4,0.2-1.4,0.9v0.8h6.5h6.5
		v-0.8c0-0.7-0.1-0.8-0.7-0.8c-3.2,0-3.4-0.6-3-7.7c0.5-7.9,0-10.5-2.5-13.1c-3.2-3.3-6.7-3.1-11.4,0.7l-2,1.6l-0.5-1
		c-2.3-4.6-7-4.9-12.6-0.8l-1.9,1.4l-0.1-2.5l-0.1-2.5L75.7,287.7 M121.1,287.2c-1.5,0.6-3.3,1.3-3.9,1.5c-1.7,0.7-1.6,1.3,0.6,2.3
		l1.7,0.8v14.9v14.9l-0.6,0.6c-0.4,0.4-1.1,0.7-2,0.8c-1.3,0.2-1.4,0.2-1.4,0.9v0.8h6.7h6.7V324c0-0.7-0.1-0.8-1.6-1
		c-3-0.4-3.6-2-3.1-8.9l0.2-2.5l2.6-0.1c4.7-0.1,8.4-1.5,11.3-4.3c9.8-9.2-0.5-24.9-11.9-18.1c-1.2,0.7-2.2,1.3-2.3,1.3
		c0,0-0.1-1-0.2-2.1l-0.1-2.1L121.1,287.2 M164.3,287.7c-4.9,1.8-5.2,2.2-2.3,3.4l1.7,0.7v8.5v8.5l-0.7,0.5c-0.4,0.3-1.3,0.6-2,0.7
		c-1.2,0.2-1.3,0.2-1.3,0.9v0.8h6.5h6.5V311c0-0.7-0.1-0.8-1.4-1c-0.8-0.1-1.6-0.4-2.1-0.8l-0.7-0.6l-0.1-7.7l-0.1-7.7l0.9-0.7
		c4-3,8.8-2.1,10,1.9c0.5,1.7,0.4,12.9-0.1,14.2c-0.3,0.8-1.2,1.2-3,1.5c-1.2,0.1-1.3,0.2-1.3,0.9v0.8h6.7h6.7V311
		c0-0.7-0.1-0.8-1.5-0.9c-2.5-0.3-2.6-0.5-2.5-4.8c0.3-11.3,0.1-13.1-1.9-15.6c-2.9-3.7-6.9-3.7-11.9,0.1l-1.9,1.4l-0.1-2.5
		l-0.1-2.5L164.3,287.7 M148.3,288.3c-4.8,1.9-4.9,2.1-2.2,3.3l1.9,0.9v8v8l-0.6,0.6c-0.4,0.4-1.1,0.7-2.1,0.8
		c-1.4,0.2-1.5,0.2-1.5,1v0.8h6.7h6.7V311c0-0.7-0.1-0.8-1.5-1c-1.1-0.1-1.7-0.4-2.1-0.8l-0.6-0.6v-10.9c0-6-0.1-10.9-0.2-10.9
		S150.6,287.4,148.3,288.3 M243,288.3c-4.8,1.9-4.9,2.1-2.2,3.3l1.9,0.9l-0.1,8.2c-0.1,9.4,0,9-2.8,9.3c-1.4,0.2-1.5,0.2-1.5,1v0.8
		h6.7h6.7V311c0-0.7-0.1-0.8-1.5-1c-1.1-0.1-1.7-0.4-2.1-0.8l-0.6-0.6v-10.9c0-6-0.1-10.9-0.2-10.9
		C247.2,286.7,245.2,287.4,243,288.3 M197.1,287.6c-7.5,2-7.5,9.2,0,13.5c6.1,3.5,7.5,7.5,3.3,9.4c-2.6,1.1-4.4,0.2-6.2-3.3
		c-1.1-2.1-2.1-2.7-2.8-1.8c0,0,0.1,1.4,0.4,3.1l0.4,3.1l1.3,0.4c7.1,1.9,13.2-1.2,13.2-6.7c0-3.1-1.2-4.6-5.7-7.3
		c-5.5-3.3-6.3-4.5-5-7.2c1.6-3.4,6.2-2.1,8.5,2.4c0.5,1,0.8,1.3,1.1,1.2c0.2-0.1,0.6-0.2,0.8-0.2c0.4,0,0.4-0.1-0.2-4.5
		c-0.3-1.9-0.3-1.9-0.9-1.8c-0.3,0.1-1.7,0-2.9-0.2C199.5,287.1,199,287.1,197.1,287.6 M56.9,287.8c-11.3,3.8-11.2,21.4,0.1,24.3
		c4.1,1,10-1.7,12-5.6c0.8-1.6-0.2-1.8-2.1-0.3c-6.2,4.9-13.9,0.6-13.9-7.8v-1.8l5.4-0.2c3-0.1,6.6-0.2,8-0.3l2.6-0.2l-0.1-1
		C68.1,289.7,62.1,286.1,56.9,287.8 M321.6,287.9c-10,2.8-13,14.8-5.5,21.4c10.1,8.9,25.9-2.7,20.1-14.8
		C333.9,289.5,326.9,286.4,321.6,287.9 M366.3,288c-8.4,3.1-10.9,14.9-4.5,21.3c3.4,3.4,7.6,4.2,11.8,2.1c2.7-1.3,6.1-5,5.4-5.9
		c-0.5-0.6-0.7-0.5-2.1,0.6c-6,5-13.4,1.2-14.1-7.1c-0.2-2.6-0.7-2.4,5.6-2.6c2.9-0.1,6.5-0.2,7.8-0.3l2.5-0.2l-0.2-1.1
		C377.7,289.4,371.5,286,366.3,288 M61.1,289.6c2.1,1.1,3.4,4.4,2,4.7c-3.4,0.7-9.4,0.9-9.4,0.2C53.6,291,58.2,288,61.1,289.6
		 M370.3,289.4c1.5,0.6,3.9,4,3.2,4.7c-0.2,0.2-3.9,0.6-6.9,0.8l-3.5,0.2l0.2-0.6C364.5,290.3,367.4,288.2,370.3,289.4 M327.8,290.3
		c8.2,5.8,3.4,23.8-5.3,19.8c-5.5-2.6-7.1-13.3-2.7-18.3C322.2,289.1,325.3,288.6,327.8,290.3 M132.1,291.5c3.8,1.8,5.8,5.9,5,10.5
		c-1.3,7.3-7.7,10.1-12,5.2l-1.1-1.2v-6.9v-6.9l1.7-0.8C127.8,290.4,129.7,290.5,132.1,291.5 M54.9,346.9v1.3h146.7h146.7v-1.3v-1.3
		H201.6H54.9V346.9 M200,372c-6.3,1.8-7.5,12.2-1.7,15.6c2.2,1.3,5.3,1.2,7.9-0.1c0.1-0.1,0.2,0.1,0.2,0.3c0,0.3,0.3,0.4,1.5,0.4
		h1.5v-4.5v-4.5h-3.5h-3.5v1.5v1.5h1.9c2.1,0,2.2,0.2,1.5,1.6c-2,3.8-7.6,1.4-7.6-3.3c0-5.9,6.3-8,8.1-2.7c0.1,0.2,3.1-1,3.1-1.3
		C209.3,373.6,203.8,371,200,372 M239,372.1c-7.4,2.4-7.4,13.6,0,16c6.1,2,11.6-1.9,11.6-8.1C250.5,374,244.9,370.2,239,372.1
		 M155.5,379.7c-1.8,4.2-3.3,7.9-3.4,8.1c-0.2,0.4,0,0.5,1.7,0.5l1.8,0l0.7-1.8l0.7-1.8l3.2-0.1l3.2-0.1l0.7,1.9l0.7,1.9h1.9
		c1.7,0,1.8,0,1.7-0.5c-0.1-0.3-1.6-3.9-3.4-8.1l-3.2-7.7h-1.5h-1.5L155.5,379.7 M173.9,380.1v8.1h1.7h1.7l0.1-5.5l0.1-5.5l3.4,5.5
		l3.4,5.5h2h2v-8.1V372h-1.6h-1.6l-0.1,5.5l-0.1,5.5l-3.4-5.5L178,372H176h-2.1V380.1 M216.3,380.1v8.1h1.7h1.7v-2.3
		c0-2.2,0-2.4,0.8-3.3c1-1.2,0.9-1.4,3.2,2.5l2,3.2l1.9,0c1.1,0,1.9,0,1.9-0.1c0-0.1-1.3-2.1-2.8-4.6c-1.5-2.4-2.8-4.5-2.7-4.7
		c0-0.1,1.3-1.6,2.9-3.3c3.4-3.8,3.4-3.6,1-3.6l-2,0l-3.1,3.5l-3.1,3.5l-0.1-3.5l-0.1-3.5H218h-1.7V380.1 M256.8,380.1v8.1h1.6h1.6
		v-2.3v-2.3l1-1l1-1l2.1,3.4l2.1,3.4h1.8c2.3,0,2.3,0.2-0.3-3.9c-1.2-1.9-2.4-3.8-2.8-4.4l-0.6-1l3.1-3.3c3.6-4,3.5-3.6,1.1-3.6
		h-1.9l-3.2,3.6l-3.2,3.6l-0.1-3.6L260,372h-1.6h-1.6V380.1 M134.9,380.3v8l4.7-0.1c4.3-0.1,4.8-0.1,5.9-0.7c2.8-1.5,3-6.1,0.3-7.6
		l-0.7-0.4l0.9-0.9c1.7-1.7,1.1-4.7-1.2-5.9c-0.6-0.3-1.8-0.4-5.3-0.4h-4.5V380.3 M243.9,375.1c5.2,2.2,3.8,10.5-1.9,10.5
		c-3,0-5.1-2.2-5.1-5.5C237,376.2,240.5,373.7,243.9,375.1 M142.5,375.3c2.6,1.1,1.1,3.1-2.3,3.1h-2.1v-1.7v-1.7h1.7
		C140.8,374.9,142,375.1,142.5,375.3 M161.4,379.3l1,2.4l-2,0.1c-2.5,0.1-2.4,0.3-1.2-2.7c0.6-1.4,1.1-2.5,1.1-2.4
		C160.3,376.8,160.8,377.9,161.4,379.3 M143.1,381.5c3.1,1.3,1.5,3.9-2.5,3.9h-2.5v-2.1v-2.1h2C141.3,381.1,142.5,381.2,143.1,381.5
		"/>
	<path id="path4" class="st0" d="M189.4,8.2c-6.6,1.8-12.7,8.6-16.3,18.2c-5.3,14.5-4.5,28.2,2.5,39.1c0.5,0.8,0.9,1.5,0.9,1.6
		c0,0.1-1.2,0.2-2.6,0.3c-16.8,1-35.1,17.2-35.1,31c0,13.5,14.8,16.1,17.6,3c1.1-5.3-1.1-17-3.2-17c-1.1,0-4.5,7.8-5,11.6
		c-0.2,1.3-0.4,2.7-0.4,3l-0.1,0.7l-0.3-0.7c-2.8-7.2,4.7-18.5,16.1-24.5c13.3-7,29-3,37.6,9.7l1.4,2l-0.9,1.2
		c-4.8,6.2-5.7,14.5-2.6,22.9c0.8,2.2,0.8,2.2,2-0.1l1-1.9l-0.4-1.5c-1.5-5.6-1-10.2,1.6-14.9l1-1.7l0.4,0.9
		c6.6,16.1-6.3,34.9-23.9,34.9h-2.3l-2.1,2.2c-1.9,2-2.1,2.2-1.6,2.5c0.8,0.4,10,0.4,11.9,0c6.6-1.6,10.9-4,15.1-8.2l1.9-2l2.2,2.2
		c6.5,6.5,16.8,9.8,25.5,8l0.9-0.2l-1.7-2.1c-1.6-1.9-1.8-2.1-2.8-2.2c-9-0.6-15-3-19.6-8.1l-1.7-1.9l1.3-3
		c7-16.2-0.2-33.7-17.8-43.2c-6.4-3.5-8.7-6.2-9.6-11.2c-0.6-3.5-0.3-8.5,0.8-11.2c0.3-0.9,0.4-0.9,0.3-0.3
		c-1.1,6.4,0,13.4,2.7,16.8c1.1,1.4,6.5-6.5,7.9-11.4c2.3-8.2-1.8-16.1-8.3-16.1c-5,0-8.6,4.2-9.3,10.9c-0.2,1.8-0.2,1.4-0.1-2
		c0.2-9.3,3.8-17.6,10.9-25.2l1.8-1.9l-1.5,2c-3.6,4.9-6.3,10.4-5.2,10.4c4.2,0,10.2-2.9,13.8-6.7C201,16.3,198.1,5.8,189.4,8.2
		 M206,8.2c-9.8,3.1-5,17.5,6.9,20.8c3.2,0.9,12.7,0.7,13.7-0.2c0.8-0.8-5.8-7.5-9.9-10.3c-1.6-1.1-3-2-3.1-2.1
		c-1.6-1.6,7.8,4.4,10.2,6.5c7.6,6.8,12.4,17.9,11.5,26.7l-0.2,2l-0.2-2.9c-0.8-13.6-12.8-18.6-15.8-6.6c-1.6,6.2,1.2,14.5,6.3,19.3
		c2.8,2.6,4.7-7.8,2.7-15c-0.4-1.6,0.5,0.5,1.2,2.8c3.6,11-1.6,19.6-18,30.1c-1.9,1.2-3.5,2.3-3.6,2.3c-0.1,0.1,1.1,2.5,1.5,3
		c0,0.1,0.7-0.3,1.5-0.7c5.9-3.4,13.9-4.3,20.7-2.4c5.4,1.5,6.8,3.3,7.4,9.8c1,10.7,6.2,17.5,13.5,17.5c8.4,0,10.8-14.1,3.6-21.2
		c-2.6-2.6-6-4.5-9.2-5.1c-1.7-0.3-1.7-0.3,0.9,2.5c4.8,5,6.3,8.6,5.8,13.9l-0.2,2.4l-0.5-2.1c-3.1-14-13.2-22.1-27.9-22.1l-4.5,0
		l2.5-1.6c1.4-0.9,5.6-3.6,9.3-6c14.7-9.4,22.6-15.9,28.1-23.1c2.4-3.2,2.5-3.2,1.5-1.3c-2,4-6.3,9.6-9.9,13
		c-2.3,2.2-2.3,2.2,0.7,1.8c9.5-1.4,16.4-8.5,16.4-16.8c0-9.7-11.8-10.6-17.4-1.3c-0.5,0.8-1.6,3.2-2.6,5.4
		c-3.4,7.9-5.2,10.2-10.1,13.2c-2.8,1.7-2.7,1.8-1.6-1.4c7.3-21.3-8.3-50.4-27.2-51C208.1,7.8,207,7.8,206,8.2 M233.1,10.6
		c-4.4,2.2-1.8,13.3,3.5,14.6l0.7,0.2l0-2.2c0-1.9-0.4-4.4-0.9-6.2c-0.1-0.3,0.1,0.1,0.5,0.9c0.8,1.6,1.4,4.5,1.5,6.3
		c0,1.8,0.3,1.6,1.5-0.8C243.1,16.9,238.3,8,233.1,10.6 M167.3,11.5c-3.6,2.2-3.9,9.4-0.6,13.2c0.6,0.7,1.2,1.2,1.4,1.2
		c0.6,0,1.7-5.4,1.8-8.4l0-1.3l0.3,1.1c0.4,1.4,0.1,5.9-0.4,7.3c-0.5,1.5-0.4,1.6,1,0.7C177.1,20.7,173.8,7.5,167.3,11.5
		 M245.7,20.8c-4.6,2.8-6.4,13.2-3.3,19.2c0.6,1.1,1.2,1.9,1.6,1.9c0.6,0,3-8.4,3.6-12.5l0.4-2.8l0.2,1.9c0.3,3.1-0.5,8.1-2.1,12.3
		c-0.8,2.1-0.7,2.3,0.7,1.3c5.2-3.6,7.8-11.9,5.6-17.8C251,20.8,248.2,19.3,245.7,20.8 M156.9,22.7c-3.3,1-4.4,7-2.2,11.5
		c1.8,3.7,6.5,7.7,8.1,7.1c0.5-0.2-1.3-8.2-2.5-11.2c-1-2.4-0.1-1.5,1.3,1.4c1.1,2.3,2,5.3,2.4,8.2c0.2,1.6,0.4,1.6,1.4-0.1
		C170.1,31.9,164.3,20.4,156.9,22.7 M203.4,30.4c-6.8,1.7-10.7,8.1-8.4,13.7c0.6,1.3,0.7,1.2,1.9-1c1.7-3.3,4.1-6.3,6.1-7.8
		c0.7-0.5,0.7-0.5-0.3,0.8c-2.1,2.6-5.2,8-5.2,9.1c0,0.7,3-0.1,5.6-1.5C212.9,38.6,213.1,28,203.4,30.4 M144.6,39.4
		c-9.8,3.5-3.6,19.3,8.8,22.8c3.2,0.9,11.1,0.7,11.1-0.2c0-0.2-4.1-4-9.5-9c-2.2-2-4.3-4-4.7-4.4c-0.4-0.4,2,1.3,5.2,3.7
		c7.1,5.3,10.4,7.7,10.7,7.7c0.5,0-0.1-5-0.9-7.3C162.1,43.2,152,36.8,144.6,39.4 M205.7,46.2c-9.6,3.2-12.7,19.5-5.3,28.1
		c1,1.2,0.9,1.4,1.9-2.6c0.8-3.2,5.3-16.7,5.4-16.3c0.2,0.7-2.6,15.5-3.6,18.9c-0.5,1.8-0.4,1.8,1.1,1.4c2.9-0.8,6.7-4.4,8.9-8.5
		C219.8,56.6,214.5,43.4,205.7,46.2 M267.2,59.5c-5.1,1.8-11.2,9.5-9.7,12.1c0.3,0.5,4.6-2,8.6-5l2.8-2.2l-1.1,1.4
		c-1.9,2.2-5.6,5.2-8.3,6.6c-1.4,0.7-1,1,1.2,1c5.3,0,10.4-3,12.6-7.5C275.8,60.7,272.7,57.5,267.2,59.5 M142.2,63.5
		c-8.1,1.3-14.5,8.8-11.7,13.7c1.8,3.3,9.2,3.4,14.6,0.2c4-2.4,9.4-9,8.2-10.1c-0.7-0.7-11.1,2.8-15.2,5.1c-1.8,1-2,1.1-1.2,0.4
		c3.5-3,7.7-5.2,12-6.3c1.5-0.4,3.1-0.8,3.6-0.9l0.8-0.2l-1.5-0.7C149,63.4,145.4,63,142.2,63.5 M241.7,66.5
		c-4.5,1.3-9.2,4.2-9.2,5.8c0,0.3,11.2,0.2,12.9-0.2c0.4-0.1,0.1,0.1-0.8,0.4c-2.4,0.8-6,1.3-9.3,1.3l-2.9,0l0.6,0.6
		c5.4,5.7,20.5,3,20.6-3.7C253.7,67.3,247.2,65,241.7,66.5 M170.9,75.4c-13.2,1.1-18,13.7-5.3,13.7c6.6,0,15.7-5.2,15.7-8.9
		c0-1.1-11.4,0.9-15.4,2.6c-1.4,0.6-1.5,0.6-0.9,0.1c2.3-1.9,7.9-3.8,12.8-4.3c4.2-0.5,4.1-0.4,2.1-1.4
		C177.3,75.8,173.9,75.2,170.9,75.4 M258.5,76.8c-0.4,0.1-1.1,0.5-1.5,0.8c-0.7,0.6-0.9,0.5,1.9,1.2c3.5,0.9,8.2,3.5,10.3,5.7
		l0.8,0.8l-1.5-1c-3.2-2.1-10.3-4.9-12.5-4.9c-1,0,1.6,5.3,3.8,7.7c5.1,5.4,13.5,5.9,14.8,0.9C276.2,82.2,265.5,74.7,258.5,76.8
		 M180.3,87.1c-3.3,0.9-5.3,2.3-6,4.3c-2.3,6,9.6,9.2,17.9,4.7c1.7-0.9,3.6-2.8,3.3-3.1c-0.4-0.4-6.9-0.9-10.7-0.8
		c-4.2,0.1-4.3,0-0.6-0.8c1.7-0.4,3.1-0.4,6.7-0.3c4.9,0.2,5,0.1,3.2-1.2C190.1,87,184.7,85.9,180.3,87.1 M217.9,87.1
		c-2.4,0.4-6.1,2.1-6.1,2.7c0,0.1,1.3,0.3,3,0.4c3.8,0.2,7.5,1.1,10.8,2.7c2.4,1.2,3.3,1.9,1.3,1.1c-4.1-1.7-15.1-2.9-15.1-1.6
		c0,0.2,0.4,0.9,0.8,1.7c4.9,8.5,21.1,9.7,21.1,1.5C233.6,90.2,225.4,85.9,217.9,87.1 M161.3,91.1c0,1,3.1,7.3,4.7,9.7
		c1.5,2.2,0.8,1.6-1.3-1c-0.9-1.1-2.2-3.3-3.1-5c-1.8-3.7-2.1-3.5-1.9,1.2c0.2,6,4.6,11.6,9,11.6c6.4,0,3-12.2-4.3-15.7
		C163.1,91.1,161.3,90.7,161.3,91.1 M0,0 M0,0 M0,0"/>
</g>
</svg>
